<?xml version="1.0" encoding="utf-8"?>
<!-- Generator: Adobe Illustrator 26.0.0, SVG Export Plug-In . SVG Version: 6.00 Build 0)  -->
<svg version="1.1" xmlns="http://www.w3.org/2000/svg" xmlns:xlink="http://www.w3.org/1999/xlink" x="0px" y="0px"
	 viewBox="0 0 650 650" style="enable-background:new 0 0 650 650;" xml:space="preserve">
<style type="text/css">
	.st0{fill:#ACABAC;}
	.st1{fill:#974B22;}
	.st2{fill:#85C441;}
	.st3{fill:#4C5CA9;}
</style>
<g id="Layer_1">
	<rect x="-150.36" y="100" class="st0" width="50" height="50"/>
	<rect x="-150.36" y="150" class="st1" width="50" height="50"/>
	<rect x="-150.36" y="50" class="st2" width="50" height="50"/>
	<rect x="-150.36" y="200" class="st3" width="50" height="50"/>
</g>
<g id="brick">
	<rect x="50" y="50" class="st1" width="50" height="50"/>
	<rect x="50" y="100" class="st1" width="50" height="50"/>
	<rect y="300" class="st1" width="50" height="50"/>
	<rect x="100" y="300" class="st1" width="50" height="50"/>
	<rect x="50" y="300" class="st1" width="50" height="50"/>
	<rect x="150" y="150" class="st1" width="50" height="50"/>
	<rect x="150" y="200" class="st1" width="50" height="50"/>
	<rect x="150" y="250" class="st1" width="50" height="50"/>
	<rect x="150" y="300" class="st1" width="50" height="50"/>
	<rect x="200" y="250" class="st1" width="50" height="50"/>
	<rect x="200" y="300" class="st1" width="50" height="50"/>
	<rect x="250" y="250" class="st1" width="50" height="50"/>
	<rect x="250" y="200" class="st1" width="50" height="50"/>
	<rect x="50" y="400" class="st1" width="50" height="50"/>
	<rect x="50" y="450" class="st1" width="50" height="50"/>
	<rect x="50" y="500" class="st1" width="50" height="50"/>
	<rect x="50" y="550" class="st1" width="50" height="50"/>
	<rect x="50" y="600" class="st1" width="50" height="50"/>
	<rect x="150" y="600" class="st1" width="50" height="50"/>
	<rect x="150" y="500" class="st1" width="50" height="50"/>
	<rect x="150" y="450" class="st1" width="50" height="50"/>
	<rect x="250" y="350" class="st1" width="50" height="50"/>
	<rect x="250" y="400" class="st1" width="50" height="50"/>
	<rect x="250" y="450" class="st1" width="50" height="50"/>
	<rect x="250" y="500" class="st1" width="50" height="50"/>
	<rect x="300" y="500" class="st1" width="50" height="50"/>
	<rect x="350" y="500" class="st1" width="50" height="50"/>
	<rect x="300" y="450" class="st1" width="50" height="50"/>
	<rect x="350" y="450" class="st1" width="50" height="50"/>
	<rect x="350" y="400" class="st1" width="50" height="50"/>
	<rect x="350" y="350" class="st1" width="50" height="50"/>
	<rect x="400" y="300" class="st1" width="50" height="50"/>
	<rect x="450" y="300" class="st1" width="50" height="50"/>
	<rect x="300" y="150" class="st1" width="50" height="50"/>
	<rect x="300" y="100" class="st1" width="50" height="50"/>
	<rect x="350" y="100" class="st1" width="50" height="50"/>
	<rect x="350" y="150" class="st1" width="50" height="50"/>
	<rect x="350" y="50" class="st1" width="50" height="50"/>
	<rect x="450" y="250" class="st1" width="50" height="50"/>
	<rect x="450" y="200" class="st1" width="50" height="50"/>
	<rect x="450" y="100" class="st1" width="50" height="50"/>
	<rect x="450" y="50" class="st1" width="50" height="50"/>
	<rect x="550" y="100" class="st1" width="50" height="50"/>
	<rect x="550" y="50" class="st1" width="50" height="50"/>
	<rect x="550" y="200" class="st1" width="50" height="50"/>
	<rect x="450" y="350" class="st1" width="50" height="50"/>
	<rect x="550" y="400" class="st1" width="50" height="50"/>
	<rect x="550" y="350" class="st1" width="50" height="50"/>
	<rect x="550" y="300" class="st1" width="50" height="50"/>
	<rect x="550" y="450" class="st1" width="50" height="50"/>
	<rect x="450" y="450" class="st1" width="50" height="50"/>
	<rect x="550" y="550" class="st1" width="50" height="50"/>
	<rect x="550" y="600" class="st1" width="50" height="50"/>
	<rect x="500" y="600" class="st1" width="50" height="50"/>
	<rect x="450" y="600" class="st1" width="50" height="50"/>
	<rect x="450" y="550" class="st1" width="50" height="50"/>
</g>
<g id="metal">
	<rect x="150" class="st0" width="50" height="50"/>
	<rect x="150" y="50" class="st0" width="50" height="50"/>
	<rect x="150" y="350" class="st0" width="50" height="50"/>
	<rect x="150" y="400" class="st0" width="50" height="50"/>
	<rect y="400" class="st0" width="50" height="50"/>
	<rect x="350" y="300" class="st0" width="50" height="50"/>
	<rect x="400" y="250" class="st0" width="50" height="50"/>
	<rect x="300" y="200" class="st0" width="50" height="50"/>
	<rect x="350" class="st0" width="50" height="50"/>
	<rect x="450" y="150" class="st0" width="50" height="50"/>
	<rect x="500" y="100" class="st0" width="50" height="50"/>
	<rect x="600" y="150" class="st0" width="50" height="50"/>
	<rect x="600" y="200" class="st0" width="50" height="50"/>
	<rect x="500" y="450" class="st0" width="50" height="50"/>
</g>
<g id="water">
	<rect x="100" y="400" class="st3" width="50" height="50"/>
	<rect y="450" class="st3" width="50" height="50"/>
	<rect y="550" class="st3" width="50" height="50"/>
	<rect y="600" class="st3" width="50" height="50"/>
	<rect x="450" y="400" class="st3" width="50" height="50"/>
	<rect x="500" y="400" class="st3" width="50" height="50"/>
	<rect x="600" y="400" class="st3" width="50" height="50"/>
	<rect x="600" y="450" class="st3" width="50" height="50"/>
	<rect x="600" y="500" class="st3" width="50" height="50"/>
	<rect x="600" y="550" class="st3" width="50" height="50"/>
</g>
<g id="grass">
	<rect y="50" class="st2" width="50" height="50"/>
	<rect y="100" class="st2" width="50" height="50"/>
	<rect y="150" class="st2" width="50" height="50"/>
	<rect y="200" class="st2" width="50" height="50"/>
	<rect y="250" class="st2" width="50" height="50"/>
	<rect x="50" y="250" class="st2" width="50" height="50"/>
	<rect x="150" y="100" class="st2" width="50" height="50"/>
	<rect x="250" y="100" class="st2" width="50" height="50"/>
	<rect x="200" y="100" class="st2" width="50" height="50"/>
	<rect x="250" y="300" class="st2" width="50" height="50"/>
	<rect x="300" y="300" class="st2" width="50" height="50"/>
	<rect x="200" y="350" class="st2" width="50" height="50"/>
	<rect y="500" class="st2" width="50" height="50"/>
	<rect x="500" y="200" class="st2" width="50" height="50"/>
	<rect x="500" y="250" class="st2" width="50" height="50"/>
	<rect x="500" y="300" class="st2" width="50" height="50"/>
</g>
</svg>
